<svg version="1.2" xmlns="http://www.w3.org/2000/svg" viewBox="0 0 100 109" width="100" height="109">
	<title>ganesha-svg</title>
	<style>
		tspan { white-space:pre } 
		.s0 { fill: #ffffff } 
		.t1 { font-size: 5px;fill: #ffffff;font-family: "' Helvetica  Neue'" } 
	</style>
	<g id="Layer">
		<path id="Layer" fill-rule="evenodd" class="s0" d="m52.4 10.3c0 2.4-1.3 4.4-2.9 4.4-1.7 0-3-2-3-4.4 0-2.4 1.3-4.3 3-4.3 1.6 0 2.9 1.9 2.9 4.3zm13.9 14.3c-0.9-7.6-3.8-10.5-7.9-13.9 7 2.7 8.6 6.5 7.9 13.9zm-31.7-0.6c-1.5-6.7 2.1-12 7.8-13.2-5.5 3.7-8 9.8-7.8 13.2zm21-8.3c-5.6 3.8-9.6 0-12.3 0.5 0.7-0.6 1.5-0.8 2.5-0.9 2.4 0 5.7 1.2 9.8 0.4zm2.7 2.8c-8.1 3.8-13.8 0-17.7 0.6 1-0.7 2.2-0.9 3.6-0.9 3.5-0.1 8.2 1.2 14.1 0.3zm2.1 3c-10 3.8-17.1 0.1-21.9 0.6 1.3-0.7 2.7-0.9 4.5-0.9 4.3-0.1 10.1 1.2 17.4 0.3zm-16.2 14c0.9 15.7 5.4 14.6 13.5 25 5.6 6.5 4.5 12.3-0.5 15.8-4.4 2.6-7.6 4.7-9.3 6.7-6.5 6.3 0.6 11.2 1.7 11.9-1.6 0.3-11.3-4.8-3.2-13.4 1.8-2.1 5.4-3.9 9.9-6.5q0 0 0 0c4.4-2.6 1.8-10.3-0.4-12.7-3.5-5.1-7.4-6-10.5-11.6-1.3 2-3 2.6-4.7-0.3 1.5 0.5 2.8-0.7 3.6-2.1-1.1-2.9-2.1-6.7-2.8-12.1-2.6-9.1-12-10.4-18.6-5.2 1.6 1 8.5 7 10 13.8-2.3-5.2-8.5-11-11.5-13.1-2.7-1.9 4.4-6.6 11.4-6.7 5.1 0 10.2 2.5 11.4 10.5zm35.4-0.5c-0.1 1.8-10.6 5.7-12.1 13.5 1.1-5.7 2.1-8.3 10.1-13.6 0.9-2.2-13.1-11.1-20.3-1-2.6 3.6-1.4 9.8-1.3 10.9 0.2 1.5 3.8 7.2 5.9 10.8 2.2 3.6 3.9 7.6 4.6 11 0.5 2.3 0.7 6.5-2.4 9.2-2.3 2-10.8 6.8-14 10 2.9-3.6 3.3-4.6 12.6-11.1 3.6-3.7 1.5-9.6-2.6-17.2-2.2-3.6-5.1-7.2-6.7-11-1.5-3.4-0.4-11.5 1.2-14.1 2.4-3.8 6.1-6.1 11.3-6.4 8.7 0.1 12.7 5.4 13.7 9zm-28.5-6.1v1.3q0 0.1 0 0.2c0.7 0.6 1.2 1.6 1.2 2.8 0 1.9-1.3 3.4-2.8 3.4-1.6 0-2.8-1.5-2.8-3.4 0-1.2 0.4-2.2 1.1-2.8q0-0.1 0-0.2v-1.3c0-0.9 0.8-1.7 1.7-1.7 0.9 0 1.6 0.8 1.6 1.7zm6.1 15.1c-1.3-7.4 3.4-11.1 7.5-12.6-2.7 2-7.5 7.3-7.5 12.6zm-16.7-0.6c-0.8-5.1-3-6.8-5.5-9.1 4.5-0.1 6.5 6.1 5.5 9.1z"/>
	</g>
	<text id="Created by mantisshrimpdesign" style="transform: matrix(1,0,0,1,0,115)" >
		<tspan x="0" y="0" class="t1">Created by mantisshrimpdesign
</tspan>
	</text>
	<text id="from the Noun Project" style="transform: matrix(1,0,0,1,0,120)" >
		<tspan x="0" y="0" class="t1">from the Noun Project
</tspan>
	</text>
</svg>